<?xml version="1.0" encoding="UTF-8"?>
<svg width="34px" height="34px" viewBox="0 0 34 34" version="1.1" xmlns="http://www.w3.org/2000/svg" xmlns:xlink="http://www.w3.org/1999/xlink">
    <g id="Zoom-in" stroke="none" stroke-width="1" fill="none" fill-rule="evenodd">
        <g transform="translate(17.457031, 17.013672) scale(-1, 1) translate(-17.457031, -17.013672) translate(0.971680, 0.528320)">
            <path d="M16.4853516,31.2109375 C14.4488932,31.2109375 12.5424805,30.8291016 10.7661133,30.0654297 C8.98974609,29.3017578 7.42643229,28.2475586 6.07617188,26.902832 C4.72591146,25.5581055 3.67171224,23.9947917 2.91357422,22.2128906 C2.1554362,20.4309896 1.77636719,18.5218099 1.77636719,16.4853516 C1.77636719,14.4488932 2.1554362,12.5397135 2.91357422,10.7578125 C3.67171224,8.97591146 4.72314453,7.40983073 6.06787109,6.05957031 C7.41259766,4.7093099 8.97591146,3.65511068 10.7578125,2.89697266 C12.5397135,2.13883464 14.4433594,1.75976562 16.46875,1.75976562 C18.516276,1.75976562 20.4282227,2.13883464 22.2045898,2.89697266 C23.980957,3.65511068 25.5442708,4.7093099 26.8945312,6.05957031 C28.2447917,7.40983073 29.3017578,8.97591146 30.0654297,10.7578125 C30.8291016,12.5397135 31.2109375,14.4488932 31.2109375,16.4853516 C31.2109375,18.5218099 30.8318685,20.4309896 30.0737305,22.2128906 C29.3155924,23.9947917 28.2613932,25.5581055 26.9111328,26.902832 C25.5608724,28.2475586 23.9947917,29.3017578 22.2128906,30.0654297 C20.4309896,30.8291016 18.5218099,31.2109375 16.4853516,31.2109375 Z" id="Path" fill-opacity="0.3" fill="transparent"></path>
            <path d="M16.4853516,32.9707031 C18.7542318,32.9707031 20.8819987,32.5418294 22.8686523,31.684082 C24.855306,30.8263346 26.6067708,29.6393229 28.1230469,28.1230469 C29.6393229,26.6067708 30.8263346,24.8525391 31.684082,22.8603516 C32.5418294,20.8681641 32.9707031,18.7431641 32.9707031,16.4853516 C32.9707031,14.2275391 32.5418294,12.1025391 31.684082,10.1103516 C30.8263346,8.11816406 29.6393229,6.36393229 28.1230469,4.84765625 C26.6067708,3.33138021 24.8525391,2.14436849 22.8603516,1.28662109 C20.8681641,0.428873698 18.7376302,0 16.46875,0 C14.2109375,0 12.0887044,0.428873698 10.1020508,1.28662109 C8.11539714,2.14436849 6.36669922,3.33138021 4.85595703,4.84765625 C3.34521484,6.36393229 2.15820312,8.11816406 1.29492188,10.1103516 C0.431640625,12.1025391 0,14.2275391 0,16.4853516 C0,18.7431641 0.428873698,20.8681641 1.28662109,22.8603516 C2.14436849,24.8525391 3.33138021,26.6067708 4.84765625,28.1230469 C6.36393229,29.6393229 8.11816406,30.8263346 10.1103516,31.684082 C12.1025391,32.5418294 14.2275391,32.9707031 16.4853516,32.9707031 Z M16.4853516,31.2109375 C14.4488932,31.2109375 12.5424805,30.8291016 10.7661133,30.0654297 C8.98974609,29.3017578 7.42643229,28.2475586 6.07617188,26.902832 C4.72591146,25.5581055 3.67171224,23.9947917 2.91357422,22.2128906 C2.1554362,20.4309896 1.77636719,18.5218099 1.77636719,16.4853516 C1.77636719,14.4488932 2.1554362,12.5397135 2.91357422,10.7578125 C3.67171224,8.97591146 4.72314453,7.40983073 6.06787109,6.05957031 C7.41259766,4.7093099 8.97591146,3.65511068 10.7578125,2.89697266 C12.5397135,2.13883464 14.4433594,1.75976562 16.46875,1.75976562 C18.516276,1.75976562 20.4282227,2.13883464 22.2045898,2.89697266 C23.980957,3.65511068 25.5442708,4.7093099 26.8945312,6.05957031 C28.2447917,7.40983073 29.3017578,8.97591146 30.0654297,10.7578125 C30.8291016,12.5397135 31.2109375,14.4488932 31.2109375,16.4853516 C31.2109375,18.5218099 30.8318685,20.4309896 30.0737305,22.2128906 C29.3155924,23.9947917 28.2613932,25.5581055 26.9111328,26.902832 C25.5608724,28.2475586 23.9947917,29.3017578 22.2128906,30.0654297 C20.4309896,30.8291016 18.5218099,31.2109375 16.4853516,31.2109375 Z M9.41308594,15.8378906 C9.6344401,15.8378906 9.81705729,15.7631836 9.9609375,15.6137695 C10.1048177,15.4643555 10.1767578,15.2789714 10.1767578,15.0576172 L10.1767578,13.9619141 L10.09375,11.0732422 L14.3271484,15.4394531 C14.4820964,15.6054688 14.6730143,15.6884766 14.8999023,15.6884766 C15.1267904,15.6884766 15.3177083,15.6110026 15.4726562,15.4560547 C15.6276042,15.2900391 15.7050781,15.0963542 15.7050781,14.875 C15.7050781,14.6536458 15.6276042,14.4654948 15.4726562,14.3105469 L11.1230469,10.0771484 L13.8291016,10.1601562 L15.0742188,10.1767578 C15.2845052,10.1767578 15.4643555,10.1020508 15.6137695,9.95263672 C15.7631836,9.80322266 15.8378906,9.61783854 15.8378906,9.39648438 C15.8378906,9.19726562 15.7631836,9.02018229 15.6137695,8.86523438 C15.4643555,8.71028646 15.2845052,8.6328125 15.0742188,8.6328125 L9.51269531,8.6328125 C9.24707031,8.6328125 9.03678385,8.7047526 8.88183594,8.84863281 C8.72688802,8.99251302 8.64941406,9.20833333 8.64941406,9.49609375 L8.64941406,15.0576172 C8.64941406,15.2789714 8.72412109,15.4643555 8.87353516,15.6137695 C9.02294922,15.7631836 9.20279948,15.8378906 9.41308594,15.8378906 Z M17.8798828,24.3046875 L23.4580078,24.3046875 C23.7125651,24.3046875 23.9200846,24.2327474 24.0805664,24.0888672 C24.2410482,23.944987 24.3212891,23.7291667 24.3212891,23.4414062 L24.3212891,17.8798828 C24.3212891,17.6585286 24.246582,17.4731445 24.097168,17.3237305 C23.9477539,17.1743164 23.7623698,17.0996094 23.5410156,17.0996094 C23.3307292,17.0996094 23.1508789,17.1743164 23.0014648,17.3237305 C22.8520508,17.4731445 22.7773438,17.6585286 22.7773438,17.8798828 L22.7773438,18.9755859 L22.8603516,21.8642578 L18.6435547,17.4980469 C18.4775391,17.3320312 18.2838542,17.2490234 18.0625,17.2490234 C17.8411458,17.2490234 17.6474609,17.3264974 17.4814453,17.4814453 C17.3264974,17.6363932 17.2517904,17.8273112 17.2573242,18.0541992 C17.2628581,18.2810872 17.343099,18.4720052 17.4980469,18.6269531 L21.8310547,22.8603516 L19.125,22.7773438 L17.8798828,22.7607422 C17.6806641,22.7607422 17.5035807,22.8354492 17.3486328,22.9848633 C17.1936849,23.1342773 17.1162109,23.3141276 17.1162109,23.5244141 C17.1162109,23.7347005 17.1936849,23.9173177 17.3486328,24.0722656 C17.5035807,24.2272135 17.6806641,24.3046875 17.8798828,24.3046875 Z" id="Shape" fill="#121314" fill-rule="nonzero"></path>
        </g>
    </g>
</svg>