<!-- Generated by IcoMoon.io -->
<svg version="1.1" xmlns="http://www.w3.org/2000/svg" width="19" height="32" viewBox="0 0 19 32">
<title>icon-arrow-right</title>
<path d="M2.574 32.013v0c-0.004 0-0.009 0-0.013 0-1.414 0-2.561-1.147-2.561-2.561 0-0.005 0-0.009 0-0.014v0.001c-0-0.007-0-0.015-0-0.023 0-0.694 0.28-1.322 0.734-1.778l-0 0 11.752-11.631-11.725-11.605c-0.47-0.467-0.761-1.113-0.761-1.827 0-1.422 1.153-2.575 2.575-2.575 0.708 0 1.349 0.286 1.814 0.748l13.552 13.432c0.473 0.465 0.767 1.112 0.767 1.827s-0.293 1.362-0.766 1.827l-0 0-13.552 13.419c-0.439 0.45-1.044 0.737-1.716 0.76l-0.004 0zM1.574 28.412v0zM1.574 3.588v0z"></path>
</svg>
