<!-- Generated by IcoMoon.io -->
<svg version="1.1" xmlns="http://www.w3.org/2000/svg" width="19" height="32" viewBox="0 0 19 32">
<title>icon-arrow-left</title>
<path d="M16.127 0v0c1.403 0.022 2.533 1.157 2.548 2.56v0.001c0 0.001 0 0.003 0 0.004 0 0.702-0.286 1.338-0.747 1.797l-11.712 11.645 11.725 11.551c0.407 0.453 0.656 1.056 0.656 1.717 0 1.422-1.153 2.574-2.574 2.574-0.658 0-1.258-0.247-1.713-0.652l0.003 0.002-13.552-13.366c-0.462-0.472-0.75-1.115-0.76-1.825l-0-0.002c0.002-0.716 0.298-1.363 0.773-1.827l0.001-0.001 13.552-13.432c0.451-0.453 1.072-0.737 1.759-0.747l0.002-0zM17.127 3.602v0zM17.127 28.412v0z"></path>
</svg>
